<?xml version="1.0" standalone="no"?>
<!DOCTYPE svg PUBLIC "-//W3C//DTD SVG 20010904//EN"
 "http://www.w3.org/TR/2001/REC-SVG-20010904/DTD/svg10.dtd">
<svg version="1.0" xmlns="http://www.w3.org/2000/svg"
 width="512.000000pt" height="512.000000pt" viewBox="0 0 512.000000 512.000000"
 preserveAspectRatio="xMidYMid meet">
<metadata>
Created by potrace 1.11, written by Peter Selinger 2001-2013
</metadata>
<g transform="translate(0.000000,512.000000) scale(0.100000,-0.100000)"
fill="#000000" stroke="none">
<path d="M2303 4707 c-31 -29 -37 -41 -41 -89 -8 -103 46 -169 139 -171 123
-1 196 108 143 218 -21 45 -83 75 -152 75 -45 0 -57 -4 -89 -33z"/>
<path d="M2708 4709 c-44 -43 -57 -107 -33 -166 33 -79 86 -108 169 -92 129
24 166 194 58 265 -15 10 -54 19 -92 22 -64 4 -67 3 -102 -29z"/>
<path d="M1810 4378 c-85 -15 -220 -94 -293 -173 -49 -52 -87 -113 -106 -169
-18 -50 -19 -111 -17 -1172 l1 -1119 33 -66 c63 -126 187 -243 297 -279 36
-12 65 -26 65 -31 0 -5 -71 -116 -157 -246 -258 -392 -400 -608 -427 -651
l-25 -40 180 0 c172 0 180 1 195 21 24 33 209 300 299 432 44 64 94 135 111
158 l30 40 611 0 c335 0 615 -3 621 -7 6 -3 46 -57 88 -119 43 -61 92 -132
109 -157 17 -25 82 -118 143 -207 l112 -161 180 0 c99 0 180 2 180 5 0 6 -107
169 -417 637 -136 205 -189 294 -182 302 5 6 24 18 42 25 130 51 253 152 296
243 58 121 57 95 55 1266 -1 1190 4 1103 -67 1212 -69 107 -183 200 -292 239
-59 21 -72 22 -842 23 -429 0 -800 -2 -823 -6z m1091 -107 c8 -1 25 -10 37
-21 20 -19 22 -30 22 -144 0 -175 29 -161 -342 -162 l-300 -2 -29 27 c-29 25
-30 29 -30 126 -1 126 -1 126 17 150 10 13 31 21 67 25 39 4 442 4 558 1z
m483 -456 c45 -19 99 -67 128 -113 22 -35 22 -45 23 -302 1 -156 -3 -279 -9
-300 -13 -43 -79 -111 -138 -141 l-43 -23 -715 -1 c-533 -1 -726 2 -756 11
-64 19 -98 39 -134 80 -60 69 -63 84 -63 356 l0 247 29 57 c18 37 46 71 77 95
44 35 67 44 137 51 14 2 341 2 727 0 588 -2 708 -5 737 -17z m-1334 -1713 c26
-16 57 -48 75 -76 27 -44 30 -58 30 -125 -1 -69 -4 -81 -34 -126 -66 -101
-173 -138 -285 -98 -90 33 -146 121 -146 231 0 59 12 91 54 146 66 86 208 109
306 48z m1364 4 c164 -96 146 -349 -29 -427 -48 -21 -142 -19 -195 4 -74 33
-130 116 -135 203 -5 76 13 122 65 175 80 80 202 99 294 45z"/>
</g>
</svg>
